<?xml version="1.0" standalone="no"?>
<!DOCTYPE svg PUBLIC "-//W3C//DTD SVG 20010904//EN"
 "http://www.w3.org/TR/2001/REC-SVG-20010904/DTD/svg10.dtd">
<svg version="1.0" xmlns="http://www.w3.org/2000/svg"
 width="846.000000pt" height="846.000000pt" viewBox="0 0 846.000000 846.000000"
 preserveAspectRatio="xMidYMid meet">
<metadata>
Created by potrace 1.11, written by Peter Selinger 2001-2013
</metadata>
<g transform="translate(0.000000,846.000000) scale(0.100000,-0.100000)"
fill="#000000" stroke="none">
<path d="M0 4230 l0 -4230 4230 0 4230 0 0 4230 0 4230 -4230 0 -4230 0 0
-4230z m3022 2056 c264 -48 499 -247 619 -527 231 -535 35 -1208 -416 -1431
-123 -62 -178 -73 -345 -72 -144 0 -160 2 -230 28 -220 82 -387 235 -493 451
-75 153 -100 246 -118 428 -37 381 100 748 360 958 182 148 397 205 623 165z
m1408 -516 c0 -313 4 -520 9 -520 5 0 18 11 29 25 11 14 69 78 129 142 130
142 204 222 344 373 186 203 372 404 418 453 l44 47 194 0 c106 0 193 -3 193
-6 0 -3 -60 -71 -132 -151 -73 -80 -157 -173 -187 -207 -30 -33 -95 -106 -146
-161 -271 -294 -305 -336 -294 -357 6 -11 60 -88 120 -171 60 -84 130 -181
156 -217 65 -90 338 -470 445 -616 48 -67 88 -127 88 -133 0 -8 -60 -11 -197
-11 l-198 1 -243 327 c-134 180 -281 379 -328 442 -47 63 -89 116 -92 118 -12
4 -87 -75 -285 -298 l-67 -75 0 -258 0 -257 -167 2 -168 3 -3 1013 -2 1012
170 0 170 0 0 -520z m1940 -1285 l0 -1786 -137 3 -138 3 -3 1770 c-1 974 0
1776 3 1783 3 9 41 12 140 12 l135 0 0 -1785z m-4052 -640 c1 -1 2 -317 2
-701 0 -384 4 -705 8 -711 6 -10 80 -13 292 -15 l285 -3 3 -121 c3 -119 2
-122 -20 -128 -30 -8 -751 -8 -772 0 -14 6 -16 89 -16 844 l0 839 33 4 c30 4
179 -2 185 -8z m1479 -23 c12 -30 147 -413 183 -522 5 -14 38 -110 75 -215 37
-104 73 -208 80 -230 14 -41 55 -161 169 -489 36 -103 64 -191 61 -195 -6 -10
-207 -13 -221 -4 -7 5 -38 85 -69 178 -32 94 -62 178 -67 188 -8 16 -32 17
-345 15 l-336 -3 -63 -184 c-35 -101 -69 -188 -76 -193 -7 -4 -58 -7 -113 -6
-93 3 -100 4 -98 23 1 20 43 141 228 665 144 408 220 626 282 805 30 88 61
170 69 182 12 20 22 21 120 21 l106 0 15 -36z m920 32 l63 -6 2 -361 3 -362
355 0 355 0 3 359 c2 273 5 362 15 368 6 5 56 7 110 6 l97 -1 0 -849 0 -849
-107 3 -108 3 -3 347 -2 348 -23 5 c-12 3 -173 4 -357 3 l-335 -3 -5 -350 -5
-350 -105 0 -105 0 -3 839 c-1 508 2 842 7 845 14 9 78 11 148 5z m1606 -1386
c66 -33 96 -134 63 -212 -35 -84 -148 -119 -236 -74 -136 70 -109 274 41 308
43 9 83 2 132 -22z"/>
<path d="M2818 5988 c-219 -22 -416 -228 -489 -512 -18 -70 -20 -101 -16 -231
5 -157 16 -206 70 -327 80 -179 225 -309 394 -353 351 -91 683 255 683 711 0
234 -86 446 -236 583 -112 103 -246 146 -406 129z"/>
<path d="M3655 3529 c-27 -72 -235 -706 -235 -716 0 -10 48 -13 249 -13 l250
0 -14 48 c-8 27 -49 147 -91 268 -41 120 -80 235 -86 254 -17 62 -51 155 -59
164 -5 6 -11 3 -14 -5z"/>
</g>
</svg>
